<?xml version="1.0" encoding="UTF-8" standalone="no"?>
<!DOCTYPE svg PUBLIC "-//W3C//DTD SVG 1.1//EN"
 "http://www.w3.org/Graphics/SVG/1.1/DTD/svg11.dtd">
<!-- Generated by graphviz version 2.47.0 (20210316.0004)
 -->
<!-- Title: dbml Pages: 1 -->
<svg width="1507pt" height="2973pt"
 viewBox="0.00 0.00 1506.93 2972.77" xmlns="http://www.w3.org/2000/svg" xmlns:xlink="http://www.w3.org/1999/xlink">
<g id="graph0" class="graph" transform="scale(1 1) rotate(0) translate(4 2968.77)">
<title>dbml</title>
<!-- Audit -->
<g id="Audit" class="node">
<title>Audit</title>
<ellipse fill="none" stroke="black" stroke-width="0" cx="553.59" cy="-257.39" rx="276.46" ry="257.27"/>
<polygon fill="#1d71b8" stroke="transparent" points="360.59,-377.39 360.59,-437.39 747.59,-437.39 747.59,-377.39 360.59,-377.39"/>
<polygon fill="none" stroke="#29235c" points="360.59,-377.39 360.59,-437.39 747.59,-437.39 747.59,-377.39 360.59,-377.39"/>
<text text-anchor="start" x="455.38" y="-398.59" font-family="Helvetica,sans-Serif" font-weight="bold" font-size="32.00" fill="#ffffff"> &#160;&#160;&#160;&#160;&#160;&#160;Audit &#160;&#160;&#160;&#160;&#160;&#160;</text>
<polygon fill="#e7e2dd" stroke="transparent" points="360.59,-317.39 360.59,-377.39 747.59,-377.39 747.59,-317.39 360.59,-317.39"/>
<polygon fill="none" stroke="#29235c" points="360.59,-317.39 360.59,-377.39 747.59,-377.39 747.59,-317.39 360.59,-317.39"/>
<text text-anchor="start" x="371.59" y="-338.59" font-family="Helvetica,sans-Serif" font-weight="bold" font-size="32.00" fill="#29235c">id</text>
<text text-anchor="start" x="396.48" y="-338.59" font-family="Helvetica,sans-Serif" font-size="32.00" fill="#29235c"> &#160;&#160;&#160;</text>
<text text-anchor="start" x="594.37" y="-338.59" font-family="Helvetica,sans-Serif" font-style="italic" font-size="32.00" fill="#29235c">INTEGER</text>
<polygon fill="#e7e2dd" stroke="transparent" points="360.59,-257.39 360.59,-317.39 747.59,-317.39 747.59,-257.39 360.59,-257.39"/>
<polygon fill="none" stroke="#29235c" points="360.59,-257.39 360.59,-317.39 747.59,-317.39 747.59,-257.39 360.59,-257.39"/>
<text text-anchor="start" x="371.17" y="-277.59" font-family="Helvetica,sans-Serif" font-size="32.00" fill="#29235c">entity_name &#160;&#160;&#160;</text>
<text text-anchor="start" x="580.38" y="-278.59" font-family="Helvetica,sans-Serif" font-style="italic" font-size="32.00" fill="#29235c">VARCHAR</text>
<polygon fill="#e7e2dd" stroke="transparent" points="360.59,-197.39 360.59,-257.39 747.59,-257.39 747.59,-197.39 360.59,-197.39"/>
<polygon fill="none" stroke="#29235c" points="360.59,-197.39 360.59,-257.39 747.59,-257.39 747.59,-197.39 360.59,-197.39"/>
<text text-anchor="start" x="371.59" y="-217.59" font-family="Helvetica,sans-Serif" font-size="32.00" fill="#29235c">entity_id &#160;&#160;&#160;</text>
<text text-anchor="start" x="594.37" y="-218.59" font-family="Helvetica,sans-Serif" font-style="italic" font-size="32.00" fill="#29235c">INTEGER</text>
<polygon fill="#e7e2dd" stroke="transparent" points="360.59,-137.39 360.59,-197.39 747.59,-197.39 747.59,-137.39 360.59,-137.39"/>
<polygon fill="none" stroke="#29235c" points="360.59,-137.39 360.59,-197.39 747.59,-197.39 747.59,-137.39 360.59,-137.39"/>
<text text-anchor="start" x="371.59" y="-157.59" font-family="Helvetica,sans-Serif" font-size="32.00" fill="#29235c">action &#160;&#160;&#160;</text>
<text text-anchor="start" x="580.16" y="-158.59" font-family="Helvetica,sans-Serif" font-style="italic" font-size="32.00" fill="#29235c">VARCHAR</text>
<polygon fill="#e7e2dd" stroke="transparent" points="360.59,-77.39 360.59,-137.39 747.59,-137.39 747.59,-77.39 360.59,-77.39"/>
<polygon fill="none" stroke="#29235c" points="360.59,-77.39 360.59,-137.39 747.59,-137.39 747.59,-77.39 360.59,-77.39"/>
<text text-anchor="start" x="371.59" y="-97.59" font-family="Helvetica,sans-Serif" font-size="32.00" fill="#29235c">timestamp &#160;&#160;&#160;</text>
<text text-anchor="start" x="574.82" y="-98.59" font-family="Helvetica,sans-Serif" font-style="italic" font-size="32.00" fill="#29235c">DATETIME</text>
<polygon fill="none" stroke="#29235c" stroke-width="2" points="359.09,-76.39 359.09,-438.39 748.09,-438.39 748.09,-76.39 359.09,-76.39"/>
</g>
<!-- Component -->
<g id="Component" class="node">
<title>Component</title>
<ellipse fill="none" stroke="black" stroke-width="0" cx="1187.09" cy="-1612.39" rx="251.96" ry="172.57"/>
<polygon fill="#1d71b8" stroke="transparent" points="1011.09,-1672.39 1011.09,-1732.39 1363.09,-1732.39 1363.09,-1672.39 1011.09,-1672.39"/>
<polygon fill="none" stroke="#29235c" points="1011.09,-1672.39 1011.09,-1732.39 1363.09,-1732.39 1363.09,-1672.39 1011.09,-1672.39"/>
<text text-anchor="start" x="1042.15" y="-1693.59" font-family="Helvetica,sans-Serif" font-weight="bold" font-size="32.00" fill="#ffffff"> &#160;&#160;&#160;&#160;&#160;&#160;Component &#160;&#160;&#160;&#160;&#160;&#160;</text>
<polygon fill="#e7e2dd" stroke="transparent" points="1011.09,-1612.39 1011.09,-1672.39 1363.09,-1672.39 1363.09,-1612.39 1011.09,-1612.39"/>
<polygon fill="none" stroke="#29235c" points="1011.09,-1612.39 1011.09,-1672.39 1363.09,-1672.39 1363.09,-1612.39 1011.09,-1612.39"/>
<text text-anchor="start" x="1022.09" y="-1633.59" font-family="Helvetica,sans-Serif" font-weight="bold" font-size="32.00" fill="#29235c">id</text>
<text text-anchor="start" x="1046.98" y="-1633.59" font-family="Helvetica,sans-Serif" font-size="32.00" fill="#29235c"> &#160;&#160;&#160;</text>
<text text-anchor="start" x="1209.88" y="-1633.59" font-family="Helvetica,sans-Serif" font-style="italic" font-size="32.00" fill="#29235c">INTEGER</text>
<polygon fill="#e7e2dd" stroke="transparent" points="1011.09,-1552.39 1011.09,-1612.39 1363.09,-1612.39 1363.09,-1552.39 1011.09,-1552.39"/>
<polygon fill="none" stroke="#29235c" points="1011.09,-1552.39 1011.09,-1612.39 1363.09,-1612.39 1363.09,-1552.39 1011.09,-1552.39"/>
<text text-anchor="start" x="1022.09" y="-1572.59" font-family="Helvetica,sans-Serif" font-size="32.00" fill="#29235c">name &#160;&#160;&#160;</text>
<text text-anchor="start" x="1195.67" y="-1573.59" font-family="Helvetica,sans-Serif" font-style="italic" font-size="32.00" fill="#29235c">VARCHAR</text>
<polygon fill="#e7e2dd" stroke="transparent" points="1011.09,-1492.39 1011.09,-1552.39 1363.09,-1552.39 1363.09,-1492.39 1011.09,-1492.39"/>
<polygon fill="none" stroke="#29235c" points="1011.09,-1492.39 1011.09,-1552.39 1363.09,-1552.39 1363.09,-1492.39 1011.09,-1492.39"/>
<text text-anchor="start" x="1021.97" y="-1512.59" font-family="Helvetica,sans-Serif" font-size="32.00" fill="#29235c">css_class &#160;&#160;&#160;</text>
<text text-anchor="start" x="1195.88" y="-1513.59" font-family="Helvetica,sans-Serif" font-style="italic" font-size="32.00" fill="#29235c">VARCHAR</text>
<polygon fill="none" stroke="#29235c" stroke-width="2" points="1010.09,-1491.39 1010.09,-1733.39 1364.09,-1733.39 1364.09,-1491.39 1010.09,-1491.39"/>
</g>
<!-- ComponentStyle -->
<g id="ComponentStyle" class="node">
<title>ComponentStyle</title>
<ellipse fill="none" stroke="black" stroke-width="0" cx="553.59" cy="-1981.39" rx="285.84" ry="172.57"/>
<polygon fill="#1d71b8" stroke="transparent" points="353.59,-2041.39 353.59,-2101.39 753.59,-2101.39 753.59,-2041.39 353.59,-2041.39"/>
<polygon fill="none" stroke="#29235c" points="353.59,-2041.39 353.59,-2101.39 753.59,-2101.39 753.59,-2041.39 353.59,-2041.39"/>
<text text-anchor="start" x="373.09" y="-2062.59" font-family="Helvetica,sans-Serif" font-weight="bold" font-size="32.00" fill="#ffffff"> &#160;&#160;&#160;&#160;&#160;&#160;ComponentStyle &#160;&#160;&#160;&#160;&#160;&#160;</text>
<polygon fill="#e7e2dd" stroke="transparent" points="353.59,-1981.39 353.59,-2041.39 753.59,-2041.39 753.59,-1981.39 353.59,-1981.39"/>
<polygon fill="none" stroke="#29235c" points="353.59,-1981.39 353.59,-2041.39 753.59,-2041.39 753.59,-1981.39 353.59,-1981.39"/>
<text text-anchor="start" x="364.59" y="-2002.59" font-family="Helvetica,sans-Serif" font-weight="bold" font-size="32.00" fill="#29235c">id</text>
<text text-anchor="start" x="389.48" y="-2002.59" font-family="Helvetica,sans-Serif" font-size="32.00" fill="#29235c"> &#160;&#160;&#160;</text>
<text text-anchor="start" x="600.37" y="-2002.59" font-family="Helvetica,sans-Serif" font-style="italic" font-size="32.00" fill="#29235c">INTEGER</text>
<polygon fill="#e7e2dd" stroke="transparent" points="353.59,-1921.39 353.59,-1981.39 753.59,-1981.39 753.59,-1921.39 353.59,-1921.39"/>
<polygon fill="none" stroke="#29235c" points="353.59,-1921.39 353.59,-1981.39 753.59,-1981.39 753.59,-1921.39 353.59,-1921.39"/>
<text text-anchor="start" x="364.32" y="-1941.59" font-family="Helvetica,sans-Serif" font-size="32.00" fill="#29235c">component_id &#160;&#160;&#160;</text>
<text text-anchor="start" x="600.48" y="-1942.59" font-family="Helvetica,sans-Serif" font-style="italic" font-size="32.00" fill="#29235c">INTEGER</text>
<polygon fill="#e7e2dd" stroke="transparent" points="353.59,-1861.39 353.59,-1921.39 753.59,-1921.39 753.59,-1861.39 353.59,-1861.39"/>
<polygon fill="none" stroke="#29235c" points="353.59,-1861.39 353.59,-1921.39 753.59,-1921.39 753.59,-1861.39 353.59,-1861.39"/>
<text text-anchor="start" x="364.59" y="-1881.59" font-family="Helvetica,sans-Serif" font-size="32.00" fill="#29235c">style_id &#160;&#160;&#160;</text>
<text text-anchor="start" x="600.37" y="-1882.59" font-family="Helvetica,sans-Serif" font-style="italic" font-size="32.00" fill="#29235c">INTEGER</text>
<polygon fill="none" stroke="#29235c" stroke-width="2" points="352.59,-1860.39 352.59,-2102.39 754.59,-2102.39 754.59,-1860.39 352.59,-1860.39"/>
</g>
<!-- ComponentStyle&#45;&gt;Component -->
<!-- ComponentStyle&#45;&gt;Component -->
<g id="edge2" class="edge">
<title>ComponentStyle:e&#45;&gt;Component:w</title>
<path fill="none" stroke="#29235c" stroke-width="3" d="M754.59,-1951.39C840.84,-1951.39 820.33,-1865.9 875.26,-1799.39 931.54,-1731.24 919.23,-1649.09 999.8,-1642.77"/>
<polygon fill="#29235c" stroke="#29235c" stroke-width="3" points="1000.23,-1646.26 1010.09,-1642.39 999.97,-1639.27 1000.23,-1646.26"/>
<text text-anchor="middle" x="1016.32" y="-1613.59" font-family="Helvetica,sans-Serif" font-size="32.00" fill="#29235c">*</text>
<text text-anchor="middle" x="745.69" y="-1922.59" font-family="Helvetica,sans-Serif" font-size="32.00" fill="#29235c">1</text>
</g>
<!-- Style -->
<g id="Style" class="node">
<title>Style</title>
<ellipse fill="none" stroke="black" stroke-width="0" cx="1187.09" cy="-1981.39" rx="210.02" ry="172.57"/>
<polygon fill="#1d71b8" stroke="transparent" points="1041.09,-2041.39 1041.09,-2101.39 1334.09,-2101.39 1334.09,-2041.39 1041.09,-2041.39"/>
<polygon fill="none" stroke="#29235c" points="1041.09,-2041.39 1041.09,-2101.39 1334.09,-2101.39 1334.09,-2041.39 1041.09,-2041.39"/>
<text text-anchor="start" x="1089.78" y="-2062.59" font-family="Helvetica,sans-Serif" font-weight="bold" font-size="32.00" fill="#ffffff"> &#160;&#160;&#160;&#160;&#160;&#160;Style &#160;&#160;&#160;&#160;&#160;&#160;</text>
<polygon fill="#e7e2dd" stroke="transparent" points="1041.09,-1981.39 1041.09,-2041.39 1334.09,-2041.39 1334.09,-1981.39 1041.09,-1981.39"/>
<polygon fill="none" stroke="#29235c" points="1041.09,-1981.39 1041.09,-2041.39 1334.09,-2041.39 1334.09,-1981.39 1041.09,-1981.39"/>
<text text-anchor="start" x="1052.09" y="-2002.59" font-family="Helvetica,sans-Serif" font-weight="bold" font-size="32.00" fill="#29235c">id</text>
<text text-anchor="start" x="1076.98" y="-2002.59" font-family="Helvetica,sans-Serif" font-size="32.00" fill="#29235c"> &#160;&#160;&#160;</text>
<text text-anchor="start" x="1180.88" y="-2002.59" font-family="Helvetica,sans-Serif" font-style="italic" font-size="32.00" fill="#29235c">INTEGER</text>
<polygon fill="#e7e2dd" stroke="transparent" points="1041.09,-1921.39 1041.09,-1981.39 1334.09,-1981.39 1334.09,-1921.39 1041.09,-1921.39"/>
<polygon fill="none" stroke="#29235c" points="1041.09,-1921.39 1041.09,-1981.39 1334.09,-1981.39 1334.09,-1921.39 1041.09,-1921.39"/>
<text text-anchor="start" x="1051.8" y="-1941.59" font-family="Helvetica,sans-Serif" font-size="32.00" fill="#29235c">name &#160;&#160;&#160;</text>
<text text-anchor="start" x="1166.88" y="-1942.59" font-family="Helvetica,sans-Serif" font-style="italic" font-size="32.00" fill="#29235c">VARCHAR</text>
<polygon fill="#e7e2dd" stroke="transparent" points="1041.09,-1861.39 1041.09,-1921.39 1334.09,-1921.39 1334.09,-1861.39 1041.09,-1861.39"/>
<polygon fill="none" stroke="#29235c" points="1041.09,-1861.39 1041.09,-1921.39 1334.09,-1921.39 1334.09,-1861.39 1041.09,-1861.39"/>
<text text-anchor="start" x="1052.09" y="-1881.59" font-family="Helvetica,sans-Serif" font-size="32.00" fill="#29235c">css &#160;&#160;&#160;</text>
<text text-anchor="start" x="1241.31" y="-1882.59" font-family="Helvetica,sans-Serif" font-style="italic" font-size="32.00" fill="#29235c">TEXT</text>
<polygon fill="none" stroke="#29235c" stroke-width="2" points="1039.59,-1860.39 1039.59,-2102.39 1334.59,-2102.39 1334.59,-1860.39 1039.59,-1860.39"/>
</g>
<!-- ComponentStyle&#45;&gt;Style -->
<!-- ComponentStyle&#45;&gt;Style -->
<g id="edge4" class="edge">
<title>ComponentStyle:e&#45;&gt;Style:w</title>
<path fill="none" stroke="#29235c" stroke-width="3" d="M754.59,-1891.39C888.74,-1891.39 901.85,-2005.37 1029.85,-2011.16"/>
<polygon fill="#29235c" stroke="#29235c" stroke-width="3" points="1030.02,-2014.66 1040.09,-2011.39 1030.17,-2007.66 1030.02,-2014.66"/>
<text text-anchor="middle" x="1046.32" y="-1982.59" font-family="Helvetica,sans-Serif" font-size="32.00" fill="#29235c">*</text>
<text text-anchor="middle" x="745.69" y="-1862.59" font-family="Helvetica,sans-Serif" font-size="32.00" fill="#29235c">1</text>
</g>
<!-- Menu -->
<g id="Menu" class="node">
<title>Menu</title>
<ellipse fill="none" stroke="black" stroke-width="0" cx="553.59" cy="-1110.39" rx="237.68" ry="214.92"/>
<polygon fill="#1d71b8" stroke="transparent" points="387.59,-1200.39 387.59,-1260.39 719.59,-1260.39 719.59,-1200.39 387.59,-1200.39"/>
<polygon fill="none" stroke="#29235c" points="387.59,-1200.39 387.59,-1260.39 719.59,-1260.39 719.59,-1200.39 387.59,-1200.39"/>
<text text-anchor="start" x="451.33" y="-1221.59" font-family="Helvetica,sans-Serif" font-weight="bold" font-size="32.00" fill="#ffffff"> &#160;&#160;&#160;&#160;&#160;&#160;Menu &#160;&#160;&#160;&#160;&#160;&#160;</text>
<polygon fill="#e7e2dd" stroke="transparent" points="387.59,-1140.39 387.59,-1200.39 719.59,-1200.39 719.59,-1140.39 387.59,-1140.39"/>
<polygon fill="none" stroke="#29235c" points="387.59,-1140.39 387.59,-1200.39 719.59,-1200.39 719.59,-1140.39 387.59,-1140.39"/>
<text text-anchor="start" x="398.59" y="-1161.59" font-family="Helvetica,sans-Serif" font-weight="bold" font-size="32.00" fill="#29235c">id</text>
<text text-anchor="start" x="423.48" y="-1161.59" font-family="Helvetica,sans-Serif" font-size="32.00" fill="#29235c"> &#160;&#160;&#160;</text>
<text text-anchor="start" x="566.37" y="-1161.59" font-family="Helvetica,sans-Serif" font-style="italic" font-size="32.00" fill="#29235c">INTEGER</text>
<polygon fill="#e7e2dd" stroke="transparent" points="387.59,-1080.39 387.59,-1140.39 719.59,-1140.39 719.59,-1080.39 387.59,-1080.39"/>
<polygon fill="none" stroke="#29235c" points="387.59,-1080.39 387.59,-1140.39 719.59,-1140.39 719.59,-1080.39 387.59,-1080.39"/>
<text text-anchor="start" x="398.59" y="-1100.59" font-family="Helvetica,sans-Serif" font-size="32.00" fill="#29235c">title &#160;&#160;&#160;</text>
<text text-anchor="start" x="552.16" y="-1101.59" font-family="Helvetica,sans-Serif" font-style="italic" font-size="32.00" fill="#29235c">VARCHAR</text>
<polygon fill="#e7e2dd" stroke="transparent" points="387.59,-1020.39 387.59,-1080.39 719.59,-1080.39 719.59,-1020.39 387.59,-1020.39"/>
<polygon fill="none" stroke="#29235c" points="387.59,-1020.39 387.59,-1080.39 719.59,-1080.39 719.59,-1020.39 387.59,-1020.39"/>
<text text-anchor="start" x="398.11" y="-1040.59" font-family="Helvetica,sans-Serif" font-size="32.00" fill="#29235c">parent_id &#160;&#160;&#160;</text>
<text text-anchor="start" x="566.48" y="-1041.59" font-family="Helvetica,sans-Serif" font-style="italic" font-size="32.00" fill="#29235c">INTEGER</text>
<polygon fill="#e7e2dd" stroke="transparent" points="387.59,-960.39 387.59,-1020.39 719.59,-1020.39 719.59,-960.39 387.59,-960.39"/>
<polygon fill="none" stroke="#29235c" points="387.59,-960.39 387.59,-1020.39 719.59,-1020.39 719.59,-960.39 387.59,-960.39"/>
<text text-anchor="start" x="398.59" y="-980.59" font-family="Helvetica,sans-Serif" font-size="32.00" fill="#29235c">page_id &#160;&#160;&#160;</text>
<text text-anchor="start" x="566.37" y="-981.59" font-family="Helvetica,sans-Serif" font-style="italic" font-size="32.00" fill="#29235c">INTEGER</text>
<polygon fill="none" stroke="#29235c" stroke-width="2" points="386.59,-959.39 386.59,-1261.39 720.59,-1261.39 720.59,-959.39 386.59,-959.39"/>
</g>
<!-- Menu&#45;&gt;Menu -->
<!-- Menu&#45;&gt;Menu -->
<g id="edge8" class="edge">
<title>Menu:e&#45;&gt;Menu:w</title>
<path fill="none" stroke="#29235c" stroke-width="3" d="M719.59,-1050.39C877.59,-1128.04 877.59,-1343.35 553.59,-1343.35 235.92,-1343.35 229.71,-1251.73 378.51,-1174.96"/>
<polygon fill="#29235c" stroke="#29235c" stroke-width="3" points="380.23,-1178.01 387.59,-1170.39 377.08,-1171.76 380.23,-1178.01"/>
<text text-anchor="middle" x="381.37" y="-1141.59" font-family="Helvetica,sans-Serif" font-size="32.00" fill="#29235c">*</text>
<text text-anchor="middle" x="710.69" y="-1021.59" font-family="Helvetica,sans-Serif" font-size="32.00" fill="#29235c">1</text>
</g>
<!-- Page -->
<g id="Page" class="node">
<title>Page</title>
<ellipse fill="none" stroke="black" stroke-width="0" cx="1187.09" cy="-1080.39" rx="270.23" ry="257.27"/>
<polygon fill="#1d71b8" stroke="transparent" points="998.09,-1200.39 998.09,-1260.39 1376.09,-1260.39 1376.09,-1200.39 998.09,-1200.39"/>
<polygon fill="none" stroke="#29235c" points="998.09,-1200.39 998.09,-1260.39 1376.09,-1260.39 1376.09,-1200.39 998.09,-1200.39"/>
<text text-anchor="start" x="1087.49" y="-1221.59" font-family="Helvetica,sans-Serif" font-weight="bold" font-size="32.00" fill="#ffffff"> &#160;&#160;&#160;&#160;&#160;&#160;Page &#160;&#160;&#160;&#160;&#160;&#160;</text>
<polygon fill="#e7e2dd" stroke="transparent" points="998.09,-1140.39 998.09,-1200.39 1376.09,-1200.39 1376.09,-1140.39 998.09,-1140.39"/>
<polygon fill="none" stroke="#29235c" points="998.09,-1140.39 998.09,-1200.39 1376.09,-1200.39 1376.09,-1140.39 998.09,-1140.39"/>
<text text-anchor="start" x="1009.09" y="-1161.59" font-family="Helvetica,sans-Serif" font-weight="bold" font-size="32.00" fill="#29235c">id</text>
<text text-anchor="start" x="1033.98" y="-1161.59" font-family="Helvetica,sans-Serif" font-size="32.00" fill="#29235c"> &#160;&#160;&#160;</text>
<text text-anchor="start" x="1222.88" y="-1161.59" font-family="Helvetica,sans-Serif" font-style="italic" font-size="32.00" fill="#29235c">INTEGER</text>
<polygon fill="#e7e2dd" stroke="transparent" points="998.09,-1080.39 998.09,-1140.39 1376.09,-1140.39 1376.09,-1080.39 998.09,-1080.39"/>
<polygon fill="none" stroke="#29235c" points="998.09,-1080.39 998.09,-1140.39 1376.09,-1140.39 1376.09,-1080.39 998.09,-1080.39"/>
<text text-anchor="start" x="1009.09" y="-1100.59" font-family="Helvetica,sans-Serif" font-size="32.00" fill="#29235c">title &#160;&#160;&#160;</text>
<text text-anchor="start" x="1208.67" y="-1101.59" font-family="Helvetica,sans-Serif" font-style="italic" font-size="32.00" fill="#29235c">VARCHAR</text>
<polygon fill="#e7e2dd" stroke="transparent" points="998.09,-1020.39 998.09,-1080.39 1376.09,-1080.39 1376.09,-1020.39 998.09,-1020.39"/>
<polygon fill="none" stroke="#29235c" points="998.09,-1020.39 998.09,-1080.39 1376.09,-1080.39 1376.09,-1020.39 998.09,-1020.39"/>
<text text-anchor="start" x="1009.09" y="-1040.59" font-family="Helvetica,sans-Serif" font-size="32.00" fill="#29235c">content &#160;&#160;&#160;</text>
<text text-anchor="start" x="1283.31" y="-1041.59" font-family="Helvetica,sans-Serif" font-style="italic" font-size="32.00" fill="#29235c">TEXT</text>
<polygon fill="#e7e2dd" stroke="transparent" points="998.09,-960.39 998.09,-1020.39 1376.09,-1020.39 1376.09,-960.39 998.09,-960.39"/>
<polygon fill="none" stroke="#29235c" points="998.09,-960.39 998.09,-1020.39 1376.09,-1020.39 1376.09,-960.39 998.09,-960.39"/>
<text text-anchor="start" x="1009.09" y="-980.59" font-family="Helvetica,sans-Serif" font-size="32.00" fill="#29235c">created_at &#160;&#160;&#160;</text>
<text text-anchor="start" x="1203.33" y="-981.59" font-family="Helvetica,sans-Serif" font-style="italic" font-size="32.00" fill="#29235c">DATETIME</text>
<polygon fill="#e7e2dd" stroke="transparent" points="998.09,-900.39 998.09,-960.39 1376.09,-960.39 1376.09,-900.39 998.09,-900.39"/>
<polygon fill="none" stroke="#29235c" points="998.09,-900.39 998.09,-960.39 1376.09,-960.39 1376.09,-900.39 998.09,-900.39"/>
<text text-anchor="start" x="1008.76" y="-920.59" font-family="Helvetica,sans-Serif" font-size="32.00" fill="#29235c">updated_at &#160;&#160;&#160;</text>
<text text-anchor="start" x="1203.71" y="-921.59" font-family="Helvetica,sans-Serif" font-style="italic" font-size="32.00" fill="#29235c">DATETIME</text>
<polygon fill="none" stroke="#29235c" stroke-width="2" points="997.09,-899.39 997.09,-1261.39 1377.09,-1261.39 1377.09,-899.39 997.09,-899.39"/>
</g>
<!-- Menu&#45;&gt;Page -->
<!-- Menu&#45;&gt;Page -->
<g id="edge6" class="edge">
<title>Menu:e&#45;&gt;Page:w</title>
<path fill="none" stroke="#29235c" stroke-width="3" d="M720.59,-990.39C863.79,-990.39 851.15,-1162.05 987.05,-1170.09"/>
<polygon fill="#29235c" stroke="#29235c" stroke-width="3" points="987,-1173.59 997.09,-1170.39 987.2,-1166.6 987,-1173.59"/>
<text text-anchor="middle" x="1003.32" y="-1141.59" font-family="Helvetica,sans-Serif" font-size="32.00" fill="#29235c">*</text>
<text text-anchor="middle" x="711.69" y="-961.59" font-family="Helvetica,sans-Serif" font-size="32.00" fill="#29235c">1</text>
</g>
<!-- PageComponent -->
<g id="PageComponent" class="node">
<title>PageComponent</title>
<ellipse fill="none" stroke="black" stroke-width="0" cx="553.59" cy="-1576.39" rx="285.84" ry="214.92"/>
<polygon fill="#1d71b8" stroke="transparent" points="353.59,-1666.39 353.59,-1726.39 753.59,-1726.39 753.59,-1666.39 353.59,-1666.39"/>
<polygon fill="none" stroke="#29235c" points="353.59,-1666.39 353.59,-1726.39 753.59,-1726.39 753.59,-1666.39 353.59,-1666.39"/>
<text text-anchor="start" x="371.3" y="-1687.59" font-family="Helvetica,sans-Serif" font-weight="bold" font-size="32.00" fill="#ffffff"> &#160;&#160;&#160;&#160;&#160;&#160;PageComponent &#160;&#160;&#160;&#160;&#160;&#160;</text>
<polygon fill="#e7e2dd" stroke="transparent" points="353.59,-1606.39 353.59,-1666.39 753.59,-1666.39 753.59,-1606.39 353.59,-1606.39"/>
<polygon fill="none" stroke="#29235c" points="353.59,-1606.39 353.59,-1666.39 753.59,-1666.39 753.59,-1606.39 353.59,-1606.39"/>
<text text-anchor="start" x="364.59" y="-1627.59" font-family="Helvetica,sans-Serif" font-weight="bold" font-size="32.00" fill="#29235c">id</text>
<text text-anchor="start" x="389.48" y="-1627.59" font-family="Helvetica,sans-Serif" font-size="32.00" fill="#29235c"> &#160;&#160;&#160;</text>
<text text-anchor="start" x="600.37" y="-1627.59" font-family="Helvetica,sans-Serif" font-style="italic" font-size="32.00" fill="#29235c">INTEGER</text>
<polygon fill="#e7e2dd" stroke="transparent" points="353.59,-1546.39 353.59,-1606.39 753.59,-1606.39 753.59,-1546.39 353.59,-1546.39"/>
<polygon fill="none" stroke="#29235c" points="353.59,-1546.39 353.59,-1606.39 753.59,-1606.39 753.59,-1546.39 353.59,-1546.39"/>
<text text-anchor="start" x="364.59" y="-1566.59" font-family="Helvetica,sans-Serif" font-size="32.00" fill="#29235c">page_id &#160;&#160;&#160;</text>
<text text-anchor="start" x="600.37" y="-1567.59" font-family="Helvetica,sans-Serif" font-style="italic" font-size="32.00" fill="#29235c">INTEGER</text>
<polygon fill="#e7e2dd" stroke="transparent" points="353.59,-1486.39 353.59,-1546.39 753.59,-1546.39 753.59,-1486.39 353.59,-1486.39"/>
<polygon fill="none" stroke="#29235c" points="353.59,-1486.39 353.59,-1546.39 753.59,-1546.39 753.59,-1486.39 353.59,-1486.39"/>
<text text-anchor="start" x="364.32" y="-1506.59" font-family="Helvetica,sans-Serif" font-size="32.00" fill="#29235c">component_id &#160;&#160;&#160;</text>
<text text-anchor="start" x="600.48" y="-1507.59" font-family="Helvetica,sans-Serif" font-style="italic" font-size="32.00" fill="#29235c">INTEGER</text>
<polygon fill="#e7e2dd" stroke="transparent" points="353.59,-1426.39 353.59,-1486.39 753.59,-1486.39 753.59,-1426.39 353.59,-1426.39"/>
<polygon fill="none" stroke="#29235c" points="353.59,-1426.39 353.59,-1486.39 753.59,-1486.39 753.59,-1426.39 353.59,-1426.39"/>
<text text-anchor="start" x="364.59" y="-1446.59" font-family="Helvetica,sans-Serif" font-size="32.00" fill="#29235c">order &#160;&#160;&#160;</text>
<text text-anchor="start" x="600.37" y="-1447.59" font-family="Helvetica,sans-Serif" font-style="italic" font-size="32.00" fill="#29235c">INTEGER</text>
<polygon fill="none" stroke="#29235c" stroke-width="2" points="352.59,-1425.39 352.59,-1727.39 754.59,-1727.39 754.59,-1425.39 352.59,-1425.39"/>
</g>
<!-- PageComponent&#45;&gt;Component -->
<!-- PageComponent&#45;&gt;Component -->
<g id="edge10" class="edge">
<title>PageComponent:e&#45;&gt;Component:w</title>
<path fill="none" stroke="#29235c" stroke-width="3" d="M754.59,-1516.39C877.74,-1516.39 883.26,-1635.59 999.98,-1642.11"/>
<polygon fill="#29235c" stroke="#29235c" stroke-width="3" points="1000,-1645.61 1010.09,-1642.39 1000.19,-1638.61 1000,-1645.61"/>
<text text-anchor="middle" x="1016.32" y="-1651.99" font-family="Helvetica,sans-Serif" font-size="32.00" fill="#29235c">*</text>
<text text-anchor="middle" x="745.69" y="-1487.59" font-family="Helvetica,sans-Serif" font-size="32.00" fill="#29235c">1</text>
</g>
<!-- PageComponent&#45;&gt;Page -->
<!-- PageComponent&#45;&gt;Page -->
<g id="edge12" class="edge">
<title>PageComponent:e&#45;&gt;Page:w</title>
<path fill="none" stroke="#29235c" stroke-width="3" d="M754.59,-1576.39C961.28,-1576.39 792.71,-1183.76 986.94,-1170.72"/>
<polygon fill="#29235c" stroke="#29235c" stroke-width="3" points="987.21,-1174.21 997.09,-1170.39 986.98,-1167.22 987.21,-1174.21"/>
<text text-anchor="middle" x="1003.32" y="-1179.99" font-family="Helvetica,sans-Serif" font-size="32.00" fill="#29235c">*</text>
<text text-anchor="middle" x="745.69" y="-1547.59" font-family="Helvetica,sans-Serif" font-size="32.00" fill="#29235c">1</text>
</g>
<!-- PageScript -->
<g id="PageScript" class="node">
<title>PageScript</title>
<ellipse fill="none" stroke="black" stroke-width="0" cx="553.59" cy="-705.39" rx="227.88" ry="172.57"/>
<polygon fill="#1d71b8" stroke="transparent" points="394.59,-765.39 394.59,-825.39 712.59,-825.39 712.59,-765.39 394.59,-765.39"/>
<polygon fill="none" stroke="#29235c" points="394.59,-765.39 394.59,-825.39 712.59,-825.39 712.59,-765.39 394.59,-765.39"/>
<text text-anchor="start" x="413.1" y="-786.59" font-family="Helvetica,sans-Serif" font-weight="bold" font-size="32.00" fill="#ffffff"> &#160;&#160;&#160;&#160;&#160;&#160;PageScript &#160;&#160;&#160;&#160;&#160;&#160;</text>
<polygon fill="#e7e2dd" stroke="transparent" points="394.59,-705.39 394.59,-765.39 712.59,-765.39 712.59,-705.39 394.59,-705.39"/>
<polygon fill="none" stroke="#29235c" points="394.59,-705.39 394.59,-765.39 712.59,-765.39 712.59,-705.39 394.59,-705.39"/>
<text text-anchor="start" x="405.59" y="-726.59" font-family="Helvetica,sans-Serif" font-weight="bold" font-size="32.00" fill="#29235c">id</text>
<text text-anchor="start" x="430.48" y="-726.59" font-family="Helvetica,sans-Serif" font-size="32.00" fill="#29235c"> &#160;&#160;&#160;</text>
<text text-anchor="start" x="559.37" y="-726.59" font-family="Helvetica,sans-Serif" font-style="italic" font-size="32.00" fill="#29235c">INTEGER</text>
<polygon fill="#e7e2dd" stroke="transparent" points="394.59,-645.39 394.59,-705.39 712.59,-705.39 712.59,-645.39 394.59,-645.39"/>
<polygon fill="none" stroke="#29235c" points="394.59,-645.39 394.59,-705.39 712.59,-705.39 712.59,-645.39 394.59,-645.39"/>
<text text-anchor="start" x="405.59" y="-665.59" font-family="Helvetica,sans-Serif" font-size="32.00" fill="#29235c">page_id &#160;&#160;&#160;</text>
<text text-anchor="start" x="559.37" y="-666.59" font-family="Helvetica,sans-Serif" font-style="italic" font-size="32.00" fill="#29235c">INTEGER</text>
<polygon fill="#e7e2dd" stroke="transparent" points="394.59,-585.39 394.59,-645.39 712.59,-645.39 712.59,-585.39 394.59,-585.39"/>
<polygon fill="none" stroke="#29235c" points="394.59,-585.39 394.59,-645.39 712.59,-645.39 712.59,-585.39 394.59,-585.39"/>
<text text-anchor="start" x="405.25" y="-605.59" font-family="Helvetica,sans-Serif" font-size="32.00" fill="#29235c">script_id &#160;&#160;&#160;</text>
<text text-anchor="start" x="559.48" y="-606.59" font-family="Helvetica,sans-Serif" font-style="italic" font-size="32.00" fill="#29235c">INTEGER</text>
<polygon fill="none" stroke="#29235c" stroke-width="2" points="393.59,-584.39 393.59,-826.39 713.59,-826.39 713.59,-584.39 393.59,-584.39"/>
</g>
<!-- PageScript&#45;&gt;Page -->
<!-- PageScript&#45;&gt;Page -->
<g id="edge14" class="edge">
<title>PageScript:e&#45;&gt;Page:w</title>
<path fill="none" stroke="#29235c" stroke-width="3" d="M713.59,-675.39C963.65,-675.39 749.59,-1156.94 986.96,-1170.11"/>
<polygon fill="#29235c" stroke="#29235c" stroke-width="3" points="987,-1173.61 997.09,-1170.39 987.19,-1166.62 987,-1173.61"/>
<text text-anchor="middle" x="990.87" y="-1141.59" font-family="Helvetica,sans-Serif" font-size="32.00" fill="#29235c">*</text>
<text text-anchor="middle" x="704.69" y="-646.59" font-family="Helvetica,sans-Serif" font-size="32.00" fill="#29235c">1</text>
</g>
<!-- Script -->
<g id="Script" class="node">
<title>Script</title>
<ellipse fill="none" stroke="black" stroke-width="0" cx="1187.09" cy="-632.39" rx="210.02" ry="172.57"/>
<polygon fill="#1d71b8" stroke="transparent" points="1041.09,-692.39 1041.09,-752.39 1334.09,-752.39 1334.09,-692.39 1041.09,-692.39"/>
<polygon fill="none" stroke="#29235c" points="1041.09,-692.39 1041.09,-752.39 1334.09,-752.39 1334.09,-692.39 1041.09,-692.39"/>
<text text-anchor="start" x="1084.46" y="-713.59" font-family="Helvetica,sans-Serif" font-weight="bold" font-size="32.00" fill="#ffffff"> &#160;&#160;&#160;&#160;&#160;&#160;Script &#160;&#160;&#160;&#160;&#160;&#160;</text>
<polygon fill="#e7e2dd" stroke="transparent" points="1041.09,-632.39 1041.09,-692.39 1334.09,-692.39 1334.09,-632.39 1041.09,-632.39"/>
<polygon fill="none" stroke="#29235c" points="1041.09,-632.39 1041.09,-692.39 1334.09,-692.39 1334.09,-632.39 1041.09,-632.39"/>
<text text-anchor="start" x="1052.09" y="-653.59" font-family="Helvetica,sans-Serif" font-weight="bold" font-size="32.00" fill="#29235c">id</text>
<text text-anchor="start" x="1076.98" y="-653.59" font-family="Helvetica,sans-Serif" font-size="32.00" fill="#29235c"> &#160;&#160;&#160;</text>
<text text-anchor="start" x="1180.88" y="-653.59" font-family="Helvetica,sans-Serif" font-style="italic" font-size="32.00" fill="#29235c">INTEGER</text>
<polygon fill="#e7e2dd" stroke="transparent" points="1041.09,-572.39 1041.09,-632.39 1334.09,-632.39 1334.09,-572.39 1041.09,-572.39"/>
<polygon fill="none" stroke="#29235c" points="1041.09,-572.39 1041.09,-632.39 1334.09,-632.39 1334.09,-572.39 1041.09,-572.39"/>
<text text-anchor="start" x="1051.8" y="-592.59" font-family="Helvetica,sans-Serif" font-size="32.00" fill="#29235c">name &#160;&#160;&#160;</text>
<text text-anchor="start" x="1166.88" y="-593.59" font-family="Helvetica,sans-Serif" font-style="italic" font-size="32.00" fill="#29235c">VARCHAR</text>
<polygon fill="#e7e2dd" stroke="transparent" points="1041.09,-512.39 1041.09,-572.39 1334.09,-572.39 1334.09,-512.39 1041.09,-512.39"/>
<polygon fill="none" stroke="#29235c" points="1041.09,-512.39 1041.09,-572.39 1334.09,-572.39 1334.09,-512.39 1041.09,-512.39"/>
<text text-anchor="start" x="1052.09" y="-532.59" font-family="Helvetica,sans-Serif" font-size="32.00" fill="#29235c">code &#160;&#160;&#160;</text>
<text text-anchor="start" x="1241.31" y="-533.59" font-family="Helvetica,sans-Serif" font-style="italic" font-size="32.00" fill="#29235c">TEXT</text>
<polygon fill="none" stroke="#29235c" stroke-width="2" points="1039.59,-511.39 1039.59,-753.39 1334.59,-753.39 1334.59,-511.39 1039.59,-511.39"/>
</g>
<!-- PageScript&#45;&gt;Script -->
<!-- PageScript&#45;&gt;Script -->
<g id="edge16" class="edge">
<title>PageScript:e&#45;&gt;Script:w</title>
<path fill="none" stroke="#29235c" stroke-width="3" d="M713.59,-615.39C856.76,-615.39 891.86,-660.21 1029.97,-662.31"/>
<polygon fill="#29235c" stroke="#29235c" stroke-width="3" points="1030.07,-665.81 1040.09,-662.39 1030.12,-658.81 1030.07,-665.81"/>
<text text-anchor="middle" x="1046.32" y="-633.59" font-family="Helvetica,sans-Serif" font-size="32.00" fill="#29235c">*</text>
<text text-anchor="middle" x="704.69" y="-586.59" font-family="Helvetica,sans-Serif" font-size="32.00" fill="#29235c">1</text>
</g>
<!-- Role -->
<g id="Role" class="node">
<title>Role</title>
<ellipse fill="none" stroke="black" stroke-width="0" cx="1187.09" cy="-2302.39" rx="210.02" ry="130.22"/>
<polygon fill="#1d71b8" stroke="transparent" points="1041.09,-2332.39 1041.09,-2392.39 1334.09,-2392.39 1334.09,-2332.39 1041.09,-2332.39"/>
<polygon fill="none" stroke="#29235c" points="1041.09,-2332.39 1041.09,-2392.39 1334.09,-2392.39 1334.09,-2332.39 1041.09,-2332.39"/>
<text text-anchor="start" x="1092.45" y="-2353.59" font-family="Helvetica,sans-Serif" font-weight="bold" font-size="32.00" fill="#ffffff"> &#160;&#160;&#160;&#160;&#160;&#160;Role &#160;&#160;&#160;&#160;&#160;&#160;</text>
<polygon fill="#e7e2dd" stroke="transparent" points="1041.09,-2272.39 1041.09,-2332.39 1334.09,-2332.39 1334.09,-2272.39 1041.09,-2272.39"/>
<polygon fill="none" stroke="#29235c" points="1041.09,-2272.39 1041.09,-2332.39 1334.09,-2332.39 1334.09,-2272.39 1041.09,-2272.39"/>
<text text-anchor="start" x="1052.09" y="-2293.59" font-family="Helvetica,sans-Serif" font-weight="bold" font-size="32.00" fill="#29235c">id</text>
<text text-anchor="start" x="1076.98" y="-2293.59" font-family="Helvetica,sans-Serif" font-size="32.00" fill="#29235c"> &#160;&#160;&#160;</text>
<text text-anchor="start" x="1180.88" y="-2293.59" font-family="Helvetica,sans-Serif" font-style="italic" font-size="32.00" fill="#29235c">INTEGER</text>
<polygon fill="#e7e2dd" stroke="transparent" points="1041.09,-2212.39 1041.09,-2272.39 1334.09,-2272.39 1334.09,-2212.39 1041.09,-2212.39"/>
<polygon fill="none" stroke="#29235c" points="1041.09,-2212.39 1041.09,-2272.39 1334.09,-2272.39 1334.09,-2212.39 1041.09,-2212.39"/>
<text text-anchor="start" x="1051.8" y="-2232.59" font-family="Helvetica,sans-Serif" font-size="32.00" fill="#29235c">name &#160;&#160;&#160;</text>
<text text-anchor="start" x="1166.88" y="-2233.59" font-family="Helvetica,sans-Serif" font-style="italic" font-size="32.00" fill="#29235c">VARCHAR</text>
<polygon fill="none" stroke="#29235c" stroke-width="2" points="1039.59,-2211.39 1039.59,-2393.39 1334.59,-2393.39 1334.59,-2211.39 1039.59,-2211.39"/>
</g>
<!-- User -->
<g id="User" class="node">
<title>User</title>
<ellipse fill="none" stroke="black" stroke-width="0" cx="1187.09" cy="-2707.39" rx="311.67" ry="257.27"/>
<polygon fill="#1d71b8" stroke="transparent" points="969.09,-2827.39 969.09,-2887.39 1406.09,-2887.39 1406.09,-2827.39 969.09,-2827.39"/>
<polygon fill="none" stroke="#29235c" points="969.09,-2827.39 969.09,-2887.39 1406.09,-2887.39 1406.09,-2827.39 969.09,-2827.39"/>
<text text-anchor="start" x="1091.57" y="-2848.59" font-family="Helvetica,sans-Serif" font-weight="bold" font-size="32.00" fill="#ffffff"> &#160;&#160;&#160;&#160;&#160;&#160;User &#160;&#160;&#160;&#160;&#160;&#160;</text>
<polygon fill="#e7e2dd" stroke="transparent" points="969.09,-2767.39 969.09,-2827.39 1406.09,-2827.39 1406.09,-2767.39 969.09,-2767.39"/>
<polygon fill="none" stroke="#29235c" points="969.09,-2767.39 969.09,-2827.39 1406.09,-2827.39 1406.09,-2767.39 969.09,-2767.39"/>
<text text-anchor="start" x="980.09" y="-2788.59" font-family="Helvetica,sans-Serif" font-weight="bold" font-size="32.00" fill="#29235c">id</text>
<text text-anchor="start" x="1004.98" y="-2788.59" font-family="Helvetica,sans-Serif" font-size="32.00" fill="#29235c"> &#160;&#160;&#160;</text>
<text text-anchor="start" x="1252.88" y="-2788.59" font-family="Helvetica,sans-Serif" font-style="italic" font-size="32.00" fill="#29235c">INTEGER</text>
<polygon fill="#e7e2dd" stroke="transparent" points="969.09,-2707.39 969.09,-2767.39 1406.09,-2767.39 1406.09,-2707.39 969.09,-2707.39"/>
<polygon fill="none" stroke="#29235c" points="969.09,-2707.39 969.09,-2767.39 1406.09,-2767.39 1406.09,-2707.39 969.09,-2707.39"/>
<text text-anchor="start" x="980.09" y="-2727.59" font-family="Helvetica,sans-Serif" font-size="32.00" fill="#29235c">username &#160;&#160;&#160;</text>
<text text-anchor="start" x="1238.67" y="-2728.59" font-family="Helvetica,sans-Serif" font-style="italic" font-size="32.00" fill="#29235c">VARCHAR</text>
<polygon fill="#e7e2dd" stroke="transparent" points="969.09,-2647.39 969.09,-2707.39 1406.09,-2707.39 1406.09,-2647.39 969.09,-2647.39"/>
<polygon fill="none" stroke="#29235c" points="969.09,-2647.39 969.09,-2707.39 1406.09,-2707.39 1406.09,-2647.39 969.09,-2647.39"/>
<text text-anchor="start" x="980.09" y="-2667.59" font-family="Helvetica,sans-Serif" font-size="32.00" fill="#29235c">email &#160;&#160;&#160;</text>
<text text-anchor="start" x="1238.67" y="-2668.59" font-family="Helvetica,sans-Serif" font-style="italic" font-size="32.00" fill="#29235c">VARCHAR</text>
<polygon fill="#e7e2dd" stroke="transparent" points="969.09,-2587.39 969.09,-2647.39 1406.09,-2647.39 1406.09,-2587.39 969.09,-2587.39"/>
<polygon fill="none" stroke="#29235c" points="969.09,-2587.39 969.09,-2647.39 1406.09,-2647.39 1406.09,-2587.39 969.09,-2587.39"/>
<text text-anchor="start" x="979.78" y="-2607.59" font-family="Helvetica,sans-Serif" font-size="32.00" fill="#29235c">password_hash &#160;&#160;&#160;</text>
<text text-anchor="start" x="1238.88" y="-2608.59" font-family="Helvetica,sans-Serif" font-style="italic" font-size="32.00" fill="#29235c">VARCHAR</text>
<polygon fill="#e7e2dd" stroke="transparent" points="969.09,-2527.39 969.09,-2587.39 1406.09,-2587.39 1406.09,-2527.39 969.09,-2527.39"/>
<polygon fill="none" stroke="#29235c" points="969.09,-2527.39 969.09,-2587.39 1406.09,-2587.39 1406.09,-2527.39 969.09,-2527.39"/>
<text text-anchor="start" x="980.09" y="-2547.59" font-family="Helvetica,sans-Serif" font-size="32.00" fill="#29235c">created_at &#160;&#160;&#160;</text>
<text text-anchor="start" x="1233.33" y="-2548.59" font-family="Helvetica,sans-Serif" font-style="italic" font-size="32.00" fill="#29235c">DATETIME</text>
<polygon fill="none" stroke="#29235c" stroke-width="2" points="967.59,-2526.39 967.59,-2888.39 1406.59,-2888.39 1406.59,-2526.39 967.59,-2526.39"/>
</g>
<!-- UserRole -->
<g id="UserRole" class="node">
<title>UserRole</title>
<ellipse fill="none" stroke="black" stroke-width="0" cx="553.59" cy="-2580.39" rx="217.58" ry="172.57"/>
<polygon fill="#1d71b8" stroke="transparent" points="401.59,-2640.39 401.59,-2700.39 705.59,-2700.39 705.59,-2640.39 401.59,-2640.39"/>
<polygon fill="none" stroke="#29235c" points="401.59,-2640.39 401.59,-2700.39 705.59,-2700.39 705.59,-2640.39 401.59,-2640.39"/>
<text text-anchor="start" x="424.68" y="-2661.59" font-family="Helvetica,sans-Serif" font-weight="bold" font-size="32.00" fill="#ffffff"> &#160;&#160;&#160;&#160;&#160;&#160;UserRole &#160;&#160;&#160;&#160;&#160;&#160;</text>
<polygon fill="#e7e2dd" stroke="transparent" points="401.59,-2580.39 401.59,-2640.39 705.59,-2640.39 705.59,-2580.39 401.59,-2580.39"/>
<polygon fill="none" stroke="#29235c" points="401.59,-2580.39 401.59,-2640.39 705.59,-2640.39 705.59,-2580.39 401.59,-2580.39"/>
<text text-anchor="start" x="412.59" y="-2601.59" font-family="Helvetica,sans-Serif" font-weight="bold" font-size="32.00" fill="#29235c">id</text>
<text text-anchor="start" x="437.48" y="-2601.59" font-family="Helvetica,sans-Serif" font-size="32.00" fill="#29235c"> &#160;&#160;&#160;</text>
<text text-anchor="start" x="552.37" y="-2601.59" font-family="Helvetica,sans-Serif" font-style="italic" font-size="32.00" fill="#29235c">INTEGER</text>
<polygon fill="#e7e2dd" stroke="transparent" points="401.59,-2520.39 401.59,-2580.39 705.59,-2580.39 705.59,-2520.39 401.59,-2520.39"/>
<polygon fill="none" stroke="#29235c" points="401.59,-2520.39 401.59,-2580.39 705.59,-2580.39 705.59,-2520.39 401.59,-2520.39"/>
<text text-anchor="start" x="412.35" y="-2540.59" font-family="Helvetica,sans-Serif" font-size="32.00" fill="#29235c">user_id &#160;&#160;&#160;</text>
<text text-anchor="start" x="552.48" y="-2541.59" font-family="Helvetica,sans-Serif" font-style="italic" font-size="32.00" fill="#29235c">INTEGER</text>
<polygon fill="#e7e2dd" stroke="transparent" points="401.59,-2460.39 401.59,-2520.39 705.59,-2520.39 705.59,-2460.39 401.59,-2460.39"/>
<polygon fill="none" stroke="#29235c" points="401.59,-2460.39 401.59,-2520.39 705.59,-2520.39 705.59,-2460.39 401.59,-2460.39"/>
<text text-anchor="start" x="412.59" y="-2480.59" font-family="Helvetica,sans-Serif" font-size="32.00" fill="#29235c">role_id &#160;&#160;&#160;</text>
<text text-anchor="start" x="552.37" y="-2481.59" font-family="Helvetica,sans-Serif" font-style="italic" font-size="32.00" fill="#29235c">INTEGER</text>
<polygon fill="none" stroke="#29235c" stroke-width="2" points="400.59,-2459.39 400.59,-2701.39 706.59,-2701.39 706.59,-2459.39 400.59,-2459.39"/>
</g>
<!-- UserRole&#45;&gt;Role -->
<!-- UserRole&#45;&gt;Role -->
<g id="edge18" class="edge">
<title>UserRole:e&#45;&gt;Role:w</title>
<path fill="none" stroke="#29235c" stroke-width="3" d="M706.59,-2490.39C873.25,-2490.39 870.14,-2310.02 1029.84,-2302.62"/>
<polygon fill="#29235c" stroke="#29235c" stroke-width="3" points="1030.18,-2306.11 1040.09,-2302.39 1030.02,-2299.12 1030.18,-2306.11"/>
<text text-anchor="middle" x="1046.32" y="-2273.59" font-family="Helvetica,sans-Serif" font-size="32.00" fill="#29235c">*</text>
<text text-anchor="middle" x="697.69" y="-2461.59" font-family="Helvetica,sans-Serif" font-size="32.00" fill="#29235c">1</text>
</g>
<!-- UserRole&#45;&gt;User -->
<!-- UserRole&#45;&gt;User -->
<g id="edge20" class="edge">
<title>UserRole:e&#45;&gt;User:w</title>
<path fill="none" stroke="#29235c" stroke-width="3" d="M706.59,-2550.39C863.03,-2550.39 810.62,-2786.89 958.09,-2797.05"/>
<polygon fill="#29235c" stroke="#29235c" stroke-width="3" points="957.98,-2800.55 968.09,-2797.39 958.22,-2793.55 957.98,-2800.55"/>
<text text-anchor="middle" x="974.32" y="-2806.99" font-family="Helvetica,sans-Serif" font-size="32.00" fill="#29235c">*</text>
<text text-anchor="middle" x="697.69" y="-2559.99" font-family="Helvetica,sans-Serif" font-size="32.00" fill="#29235c">1</text>
</g>
</g>
</svg>
